<?xml version="1.0" standalone="no"?>
<!DOCTYPE svg PUBLIC "-//W3C//DTD SVG 20010904//EN"
 "http://www.w3.org/TR/2001/REC-SVG-20010904/DTD/svg10.dtd">
<svg version="1.0" xmlns="http://www.w3.org/2000/svg"
 width="469.000000pt" height="469.000000pt" viewBox="0 0 469.000000 469.000000"
 preserveAspectRatio="xMidYMid meet">
<metadata>
Created by potrace 1.11, written by Peter Selinger 2001-2013
</metadata>
<g transform="translate(0.000000,469.000000) scale(0.100000,-0.100000)"
fill="#000000" stroke="none">
<path d="M2140 4679 c-559 -53 -1058 -287 -1450 -679 -630 -629 -848 -1549
-568 -2393 252 -759 872 -1338 1643 -1532 1209 -305 2435 374 2815 1561 79
246 105 423 104 709 0 247 -14 363 -69 580 -165 655 -610 1207 -1220 1514
-386 194 -836 280 -1255 240z m-986 -1271 c22 -87 41 -156 43 -154 2 2 15 43
29 92 14 49 34 119 45 157 l20 67 109 0 110 0 0 -450 0 -450 -80 0 -80 0 -1
328 -1 327 -25 -80 c-13 -44 -38 -124 -54 -177 l-30 -98 -44 0 -44 0 -15 53
c-8 28 -31 106 -50 172 l-35 120 2 -320 2 -320 -80 0 -80 0 -3 448 -2 448 112
-3 113 -3 39 -157z m1064 95 l-3 -68 -88 -3 -87 -3 2 -307 3 -307 88 -3 88 -3
-3 -67 -3 -67 -254 -3 c-177 -2 -257 1 -261 9 -6 9 -6 45 -1 116 1 8 28 13 84
15 l82 3 0 305 0 305 -85 5 -85 5 -3 54 c-2 29 -1 60 2 67 4 11 55 14 266 14
l261 0 -3 -67z m493 -213 l119 -275 0 278 0 277 90 0 90 0 0 -450 0 -451 -87
3 -88 3 -120 280 -120 279 -3 -282 -2 -283 -88 3 -87 3 -3 448 -2 448 92 -3
91 -3 118 -275z m1027 213 l-3 -68 -88 -3 -87 -3 2 -307 3 -307 88 -3 88 -3
-3 -67 -3 -67 -257 -3 -258 -2 0 69 0 70 83 3 82 3 0 305 0 305 -82 3 -83 3 0
69 0 70 260 0 261 0 -3 -67z m-2418 -1467 c82 -42 129 -113 137 -208 11 -118
-31 -192 -226 -398 -66 -71 -121 -131 -121 -134 0 -3 86 -6 190 -6 l190 0 0
-70 0 -70 -305 0 -305 0 0 61 0 62 123 131 c197 211 236 257 263 313 44 88 19
172 -57 195 -77 22 -156 -24 -168 -99 l-6 -38 -88 -3 c-100 -3 -99 -4 -72 86
22 72 92 145 170 178 52 21 72 24 150 21 61 -2 101 -9 125 -21z m775 -7 c61
-31 105 -87 131 -165 27 -84 28 -439 1 -526 -38 -122 -124 -190 -252 -196
-129 -7 -227 52 -276 165 -35 82 -49 314 -29 471 13 99 43 164 101 216 60 54
95 65 194 63 64 -2 91 -7 130 -28z m711 16 c174 -52 227 -257 111 -424 -23
-32 -97 -118 -164 -189 -68 -72 -123 -133 -123 -136 0 -3 86 -6 190 -6 l190 0
0 -70 0 -70 -305 0 -305 0 0 60 0 61 97 102 c167 177 272 299 293 342 63 130
-39 249 -164 190 -37 -18 -58 -47 -65 -95 l-6 -35 -89 -3 -88 -3 7 38 c28 156
145 251 311 252 33 1 83 -6 110 -14z m762 0 c98 -29 160 -109 169 -217 11
-118 -29 -190 -222 -394 -66 -70 -121 -131 -123 -135 -2 -5 82 -9 187 -9 l191
0 0 -70 0 -70 -305 0 -305 0 0 60 0 60 164 175 c90 96 180 199 201 229 87 127
37 258 -93 243 -57 -6 -102 -49 -111 -104 l-6 -38 -89 -3 -88 -3 7 38 c28 156
145 251 311 252 33 1 84 -6 112 -14z"/>
<path d="M1887 1896 c-36 -33 -47 -84 -47 -214 l0 -112 115 86 c112 84 115 87
115 126 0 50 -21 101 -51 122 -36 25 -101 21 -132 -8z"/>
<path d="M1953 1538 c-122 -90 -124 -94 -102 -172 31 -112 177 -118 209 -8 6
20 10 88 8 150 l-3 113 -112 -83z"/>
</g>
</svg>
